<?xml version="1.0" encoding="utf-8"?>
<!-- Generator: Adobe Illustrator 19.2.1, SVG Export Plug-In . SVG Version: 6.00 Build 0)  -->
<svg version="1.1" id="Layer_1" xmlns="http://www.w3.org/2000/svg" xmlns:xlink="http://www.w3.org/1999/xlink" x="0px" y="0px"
	 viewBox="0 0 81.5 44.4" enable-background="new 0 0 81.5 44.4" xml:space="preserve">
<g>
	<rect y="13.1" fill="#FFFFFF" width="81.5" height="31.3"/>
	<g>
		<path fill="#123F68" d="M20.7,28.4c0-0.2,0-0.4,0-0.6l0-0.2c0,0,0-0.3,0-0.5l5.4,0c0.1,0.5,0.1,0.9,0.1,1.4L20.7,28.4z M26,30.1
			l-5.4,0c0-0.2,0-0.4,0.1-0.5l0-0.2c0,0,0-0.4,0-0.6l5.4,0C26.1,29.2,26.1,29.7,26,30.1 M25.5,31.9l-5.3,0c0-0.1,0.1-0.3,0.1-0.4
			l0.1-0.2c0,0,0.1-0.5,0.1-0.7l5.4,0C25.8,31,25.7,31.5,25.5,31.9 M24.7,33.7l-5.1,0c0-0.1,0.1-0.2,0.1-0.3l0.1-0.3
			c0,0,0.2-0.5,0.3-0.8l5.3,0C25.2,32.8,25,33.2,24.7,33.7 M23.5,35.4l-4.7,0c0-0.1,0.1-0.1,0.1-0.2l0.2-0.3c0,0,0.3-0.6,0.4-0.9
			l5,0C24.2,34.5,23.9,35,23.5,35.4 M21.5,37.2l-3.9,0c0,0,0.1-0.1,0.1-0.1l0.3-0.4c0,0,0.4-0.6,0.6-0.9l4.6,0
			C22.6,36.3,22.1,36.8,21.5,37.2 M15.9,39l0.5-0.5c0,0,0.6-0.6,0.8-0.9l3.6,0C19.4,38.5,17.7,39,15.9,39 M14.8,39
			c-1.4,0-2.7-0.3-3.9-0.8l4.4,0.3L14.8,39z M8,36.2l8.9,0.5l-0.3,0.4l-7.5,0.1C8.7,36.9,8.3,36.6,8,36.2 M6.5,34.3L18,34.9
			l-0.2,0.3L7.2,35.4C6.9,35.1,6.7,34.7,6.5,34.3 M5.6,32.5l13.2,0.6l-0.1,0.3L6.1,33.7C5.9,33.3,5.7,32.9,5.6,32.5 M5.1,30.7
			l14.2,0.6l-0.1,0.2L5.3,31.9C5.2,31.5,5.1,31.1,5.1,30.7 M4.9,28.9l14.7,0.5l0,0.2L5,30.1C4.9,29.7,4.9,29.3,4.9,28.9 M5,27.1
			l14.6,0.4l0,0.2L4.9,28.3C4.9,27.9,5,27.5,5,27.1 M5.5,25.4l13.9,0.3l0,0.2L5.1,26.5C5.2,26.1,5.3,25.7,5.5,25.4 M6.3,23.6
			l12.6,0.2L19,24L5.7,24.7C5.9,24.3,6.1,24,6.3,23.6 M7.5,21.8l10.6,0.1l0.2,0.3L6.7,22.9C6.9,22.5,7.2,22.1,7.5,21.8 M9.5,20
			l7.5,0l0.3,0.4l-9,0.6C8.6,20.6,9,20.3,9.5,20 M15.2,18.4l0.3,0.2L11,19C12.2,18.5,13.8,18.5,15.2,18.4 M16.4,18.2
			c1.8,0,3.5,0.5,4.9,1.4l-3.6,0c-0.3-0.3-0.5-0.6-0.8-0.9L16.4,18.2L16.4,18.2z M23.4,21.3l-4.6,0c-0.2-0.3-0.4-0.6-0.6-0.9L18,20
			c0,0,0-0.1-0.1-0.1l3.9,0C22.4,20.3,23,20.8,23.4,21.3 M24.7,23.1l-5,0c-0.1-0.3-0.2-0.6-0.4-0.9l-0.2-0.3c0,0-0.1-0.1-0.1-0.2
			l4.7,0C24.1,22.1,24.5,22.6,24.7,23.1 M25.6,24.8l-5.3,0c-0.1-0.3-0.1-0.6-0.2-0.8L20,23.8c0,0-0.1-0.2-0.1-0.3l5.1,0
			C25.2,23.9,25.4,24.4,25.6,24.8 M26,26.6l-5.4,0c0-0.2-0.1-0.5-0.1-0.7l0-0.2c0,0-0.1-0.3-0.1-0.4l5.3,0
			C25.8,25.7,25.9,26.1,26,26.6 M3.2,41.5h25.1V16.3H3.2V41.5z"/>
		<path fill="#123F68" d="M56.9,34.6c-1.2,0-1.4,1.1-1.4,2s0.2,2,1.4,2c1.2,0,1.4-1.1,1.4-2S58.1,34.6,56.9,34.6"/>
		<path fill="#123F68" d="M64.8,34.6c-1.2,0-1.4,1.1-1.4,2s0.2,2,1.4,2c1.2,0,1.4-1.1,1.4-2S65.9,34.6,64.8,34.6"/>
		<path fill="#123F68" d="M74.7,36.9v2.1h-0.9v-2.1l-1.7-2.7H73l1.3,2.2h0l1.3-2.2h0.8L74.7,36.9z M71.9,38.9
			c-0.4,0.2-0.8,0.3-1.6,0.3c-1.5,0-2.7-0.8-2.7-2.5c0-1.6,1.2-2.5,2.7-2.5c0.7,0,1.2,0.1,1.5,0.3l-0.2,0.4
			c-0.2-0.1-0.6-0.2-1.2-0.2c-1.2,0-1.9,0.6-1.9,2.1c0,1.3,0.8,2,1.8,2c0.4,0,0.7-0.1,0.8-0.1v-1.8H70v-0.4h1.9V38.9z M64.8,39.2
			c-1.7,0-2.3-1.1-2.3-2.5c0-1.4,0.6-2.5,2.3-2.5c1.6,0,2.3,1.1,2.3,2.5C67.1,38,66.4,39.2,64.8,39.2 M62.6,39.1h-2.8v-4.8h0.9v4.4
			h1.9V39.1z M56.9,39.2c-1.7,0-2.3-1.1-2.3-2.5c0-1.4,0.7-2.5,2.3-2.5c1.6,0,2.3,1.1,2.3,2.5C59.2,38,58.6,39.2,56.9,39.2 M54,39.1
			h-0.7l-2.7-3.5c-0.2-0.3-0.4-0.6-0.4-0.6h0c0,0,0,0.3,0,0.6v3.5h-0.7v-4.8h0.9l2.6,3.4c0.2,0.3,0.4,0.5,0.4,0.5h0c0,0,0-0.2,0-0.5
			v-3.4H54V39.1z M48.7,39.1h-0.9v-2.3h-2.4v2.3h-0.9v-4.8h0.9v2.1h2.4v-2.1h0.9V39.1z M42.8,39.2c-1.5,0-2.4-1.1-2.4-2.5
			c0-1.3,0.9-2.5,2.4-2.5c0.6,0,1,0.1,1.2,0.3l-0.2,0.4c-0.2-0.1-0.5-0.2-0.9-0.2c-1.2,0-1.6,1-1.6,2c0,1,0.5,2,1.6,2
			c0.4,0,0.6-0.1,0.9-0.2l0.2,0.4C43.8,39,43.3,39.2,42.8,39.2 M40,34.7h-2.1v1.7h1.9v0.4h-1.9v1.9H40v0.4h-3v-4.8h3V34.7z
			 M36.6,34.7h-1.3v4.4h-0.9v-4.4h-1.3v-0.4h3.4V34.7z M29.9,41.5h48.6v-9.6H29.9V41.5z"/>
	</g>
	<polygon fill="#123F68" points="32.1,17.6 32.1,22.3 36.8,22.3 36.8,23.4 32.1,23.4 32.1,29.7 30,29.7 30,16.5 37.3,16.5 
		37.3,17.6 	"/>
	<g>
		<path fill="#123F68" d="M49.4,23.1c0-3.8-1.6-6.8-5.7-6.8c-4.1,0-5.8,3.1-5.8,6.8c0,3.8,1.6,6.8,5.8,6.8
			C47.7,29.9,49.4,26.9,49.4,23.1 M47.2,23c0,2.7-0.6,5.6-3.6,5.6c-3,0-3.6-2.9-3.6-5.6s0.7-5.6,3.6-5.6
			C46.5,17.4,47.2,20.3,47.2,23"/>
		<path fill="#123F68" d="M60.3,29.7l-5.2-5.8v0c2.9,0,4.8-1.4,4.8-3.6c0-2.5-1.8-3.9-5.5-3.9c-1.7,0-3.1,0.3-3.9,0.7v12.7h2.1v-6.2
			h0l5.2,6.2H60.3z M57.9,20.3c0,1.9-1.2,3-3.8,3c-0.6,0-1.1-0.1-1.4-0.1v-5.5c0.4-0.2,1-0.3,1.8-0.3C56.8,17.3,57.9,18.2,57.9,20.3
			"/>
		<path fill="#123F68" d="M67,29.9c-3.8,0-6-3.1-6-6.8c0-3.7,2.1-6.8,6-6.8c1.4,0,2.4,0.3,3.1,0.7l-0.5,1c-0.5-0.3-1.2-0.5-2.2-0.5
			c-3,0-4.1,2.8-4.1,5.6c0,2.9,1.2,5.5,4.1,5.5c1,0,1.6-0.2,2.2-0.5l0.6,1.1C69.4,29.6,68.3,29.9,67,29.9"/>
	</g>
	<polygon fill="#123F68" points="71.2,29.7 71.2,16.5 78.6,16.5 78.6,17.6 73.3,17.6 73.3,22.3 78,22.3 78,23.4 73.3,23.4 
		73.3,28.5 78.6,28.5 78.6,29.7 	"/>
	<path fill="#123F68" d="M0.7,13.8h80.1v30H0.7V13.8z M81.1,13.1H0v31.3h81.5V13.1H81.1z"/>
</g>
<g>
	<path fill="#123F68" d="M5.7,9.6L5.1,7.5H2.3L1.7,9.6H0l2.6-9.5h2.3l2.6,9.5H5.7z M3.7,1.6L2.6,6.2h2.1L3.7,1.6z"/>
	<path fill="#123F68" d="M17.2,2.9c0,1.2-0.3,1.9-0.9,2.3c-0.4,0.3-1.2,0.5-2.3,0.5h-0.8v4h-1.8V0.2h2.8c1,0,1.7,0.2,2.2,0.6
		C17,1.2,17.2,1.9,17.2,2.9z M15.5,2.9c0-0.6-0.1-0.9-0.4-1.2c-0.2-0.2-0.6-0.3-1.2-0.3h-0.6v2.9h0.6c0.3,0,0.5,0,0.8-0.1
		c0.2,0,0.4-0.1,0.5-0.2c0.1-0.1,0.2-0.3,0.3-0.5C15.5,3.4,15.5,3.2,15.5,2.9z"/>
	<path fill="#123F68" d="M22.6,9.6l-0.6-2.2h-2.9l-0.6,2.2h-1.7l2.6-9.5h2.3l2.6,9.5H22.6z M20.7,1.6l-1.1,4.6h2.1L20.7,1.6z"/>
	<path fill="#123F68" d="M29.4,9.6c0-0.2-0.1-0.4-0.1-0.6c0-0.2,0-0.5,0-0.7c0-0.4,0-0.7,0-0.9c0-0.2,0-0.4,0-0.5
		c0-0.5-0.1-0.9-0.3-1.1c-0.2-0.2-0.5-0.3-1.1-0.3h-0.7v4.1h-1.8V0.2h3c0.9,0,1.6,0.1,2,0.4c0.5,0.4,0.8,1,0.8,2
		c0,1.3-0.5,2.1-1.6,2.3c0.6,0,1,0.2,1.2,0.6C30.9,5.9,31,6.4,31,7.3c0,0.6,0,1,0,1.2c0,0.5,0.1,0.9,0.2,1.2H29.4z M29.4,2.8
		c0-0.5-0.1-0.8-0.3-1c-0.2-0.2-0.6-0.3-1.1-0.3h-0.8v2.8h0.7c0.3,0,0.5,0,0.7-0.1c0.2,0,0.4-0.1,0.5-0.2c0.1-0.1,0.2-0.3,0.3-0.5
		C29.3,3.3,29.4,3.1,29.4,2.8z"/>
	<path fill="#123F68" d="M35.7,1.5v8.1h-1.8V1.5h-2.2V0.2h6.1v1.3H35.7z"/>
	<path fill="#123F68" d="M47.9,5c0,1.7-0.1,2.8-0.4,3.4c-0.4,0.9-1.4,1.4-2.8,1.4c-1.3,0-2.2-0.5-2.7-1.4c-0.3-0.6-0.4-1.7-0.4-3.4
		c0-1.8,0.1-3,0.4-3.6c0.4-1,1.3-1.4,2.7-1.4c1.4,0,2.3,0.5,2.8,1.4C47.8,2,47.9,3.2,47.9,5z M46.1,4.8c0-1.3-0.1-2.1-0.2-2.5
		c-0.2-0.7-0.6-1-1.2-1c-0.6,0-1,0.3-1.2,1c-0.1,0.4-0.2,1.3-0.2,2.5c0,1.4,0.1,2.3,0.2,2.7c0.2,0.6,0.6,1,1.2,1c0.6,0,1-0.3,1.2-1
		C46.1,7.1,46.1,6.2,46.1,4.8z"/>
	<path fill="#123F68" d="M51.2,1.5v2.6H54v1.3h-2.8v4.2h-1.7V0.2h4.7v1.3H51.2z"/>
</g>
</svg>
